<?xml version="1.0" standalone="no"?>
<!DOCTYPE svg PUBLIC "-//W3C//DTD SVG 20010904//EN"
 "http://www.w3.org/TR/2001/REC-SVG-20010904/DTD/svg10.dtd">
<svg version="1.0" xmlns="http://www.w3.org/2000/svg"
 width="300.000000pt" height="300.000000pt" viewBox="0 0 300.000000 300.000000"
 preserveAspectRatio="xMidYMid meet">
<metadata>
Created by potrace 1.10, written by Peter Selinger 2001-2011
</metadata>
<g transform="translate(0.000000,300.000000) scale(0.100000,-0.100000)"
fill="#d3ad7f" stroke="none">
<path d="M360 1590 c0 -17 5 -19 25 -14 l25 6 0 -91 c0 -84 1 -91 20 -91 19 0
20 7 20 91 0 91 0 91 24 87 18 -4 26 0 29 14 5 16 -2 18 -69 18 -68 0 -74 -2
-74 -20z"/>
<path d="M521 1505 l-2 -105 25 0 c24 0 26 3 26 50 0 49 1 50 30 50 29 0 30
-1 30 -50 0 -43 3 -50 20 -50 19 0 20 7 20 105 0 98 -1 105 -20 105 -17 0 -20
-7 -20 -40 0 -39 -1 -40 -33 -40 -32 0 -32 1 -29 40 4 37 2 40 -20 40 -24 0
-25 -1 -27 -105z"/>
<path d="M700 1505 l0 -105 60 0 c52 0 60 2 60 19 0 16 -5 18 -40 14 l-40 -6
0 38 c0 37 0 38 35 32 30 -5 35 -3 35 14 0 15 -7 19 -35 19 -31 0 -35 3 -35
26 0 25 2 26 40 21 35 -4 40 -2 40 14 0 17 -8 19 -60 19 l-60 0 0 -105z"/>
<path d="M910 1505 c0 -98 1 -105 20 -105 17 0 20 7 20 50 0 49 1 50 30 50 29
0 30 -1 30 -50 0 -45 2 -50 23 -50 21 0 22 3 22 105 0 104 0 105 -24 105 -21
0 -23 -4 -19 -40 3 -39 3 -40 -29 -40 -32 0 -33 1 -33 40 0 33 -3 40 -20 40
-19 0 -20 -7 -20 -105z"/>
<path d="M1084 1588 c3 -13 6 -53 6 -90 0 -77 14 -98 64 -98 54 0 66 23 66
123 0 80 -2 87 -20 87 -18 0 -20 -7 -20 -84 0 -67 -3 -85 -16 -90 -28 -11 -34
4 -34 90 0 84 0 84 -26 84 -22 0 -25 -3 -20 -22z"/>
<path d="M1250 1505 c0 -104 0 -105 24 -105 22 0 23 3 18 46 l-5 46 34 -4 c26
-2 34 1 37 15 3 14 -4 17 -32 17 -34 0 -36 2 -36 31 0 29 2 30 37 27 30 -2 38
1 41 15 3 15 -5 17 -57 17 l-61 0 0 -105z"/>
<path d="M1385 1505 l0 -105 58 0 c50 0 57 2 57 19 0 17 -5 19 -35 14 l-35 -6
0 92 c0 88 -1 91 -22 91 -22 0 -23 -3 -23 -105z"/>
<path d="M1530 1505 c0 -98 1 -105 20 -105 19 0 20 7 20 105 0 98 -1 105 -20
105 -19 0 -20 -7 -20 -105z"/>
<path d="M1592 1593 c2 -13 11 -17 29 -15 l25 3 -4 -91 -4 -90 26 0 26 0 0 91
0 91 25 -6 c20 -5 25 -3 25 14 0 18 -6 20 -76 20 -66 0 -75 -2 -72 -17z"/>
<path d="M1844 1589 c-14 -16 -19 -36 -19 -84 0 -48 5 -68 19 -84 28 -31 79
-28 105 5 27 35 26 44 -4 44 -15 0 -25 -6 -25 -14 0 -16 -19 -25 -37 -18 -9 3
-13 26 -13 67 0 41 4 64 13 67 18 7 37 -2 37 -18 0 -8 10 -14 25 -14 30 0 31
9 4 44 -26 33 -77 36 -105 5z"/>
<path d="M2010 1590 c-16 -16 -20 -33 -20 -85 0 -75 20 -105 70 -105 50 0 70
30 70 105 0 75 -20 105 -70 105 -17 0 -39 -9 -50 -20z m68 -22 c18 -18 15
-113 -3 -128 -12 -10 -18 -10 -30 0 -28 24 -16 140 15 140 3 0 11 -5 18 -12z"/>
<path d="M2165 1505 c0 -102 1 -105 23 -105 20 0 22 5 22 46 0 46 0 46 30 41
25 -6 30 -3 30 13 0 16 -7 20 -33 20 -32 0 -33 2 -29 31 4 27 8 30 36 27 23
-2 32 1 34 15 3 15 -5 17 -55 17 l-58 0 0 -105z"/>
<path d="M2300 1505 c0 -104 0 -105 24 -105 22 0 23 3 18 46 l-5 46 34 -4 c26
-2 34 1 37 15 3 14 -4 17 -32 17 -34 0 -36 2 -36 31 0 29 2 30 37 27 30 -2 38
1 41 15 3 15 -5 17 -57 17 l-61 0 0 -105z"/>
<path d="M2440 1505 l0 -105 61 0 c52 0 60 2 57 17 -3 14 -11 17 -41 15 -37
-3 -37 -3 -37 33 0 35 1 36 32 33 25 -2 34 1 36 15 3 14 -4 17 -32 17 -32 0
-36 3 -36 25 0 23 4 25 40 25 29 0 40 4 40 15 0 12 -13 15 -60 15 l-60 0 0
-105z"/>
<path d="M2580 1505 l0 -105 60 0 c53 0 60 2 60 20 0 18 -4 20 -40 14 l-40 -7
0 38 c0 37 0 38 35 32 30 -5 35 -3 35 14 0 15 -7 19 -35 19 -31 0 -35 3 -35
26 0 25 2 26 40 21 35 -4 40 -2 40 14 0 17 -8 19 -60 19 l-60 0 0 -105z"/>
</g>
</svg>
